<?xml version="1.0" standalone="no"?>
<!DOCTYPE svg PUBLIC "-//W3C//DTD SVG 20010904//EN"
 "http://www.w3.org/TR/2001/REC-SVG-20010904/DTD/svg10.dtd">
<svg version="1.0" xmlns="http://www.w3.org/2000/svg"
 width="512.000000pt" height="512.000000pt" viewBox="0 0 512.000000 512.000000"
 preserveAspectRatio="xMidYMid meet">
<metadata>
Created by potrace 1.11, written by Peter Selinger 2001-2013
</metadata>
<g transform="translate(0.000000,512.000000) scale(0.100000,-0.100000)"
fill="#000000" stroke="none">
<path d="M4745 5104 c-270 -53 -474 -223 -572 -479 -15 -38 -28 -72 -30 -74
-1 -2 -26 14 -55 35 -408 293 -931 84 -1067 -426 -36 -132 -70 -230 -103 -290
-95 -172 -211 -251 -325 -221 -120 32 -218 213 -225 414 -2 36 -6 63 -10 61
-12 -8 -96 -160 -121 -219 -52 -124 -68 -220 -56 -332 10 -94 29 -147 96 -273
95 -176 102 -193 106 -246 9 -123 -125 -268 -245 -267 -67 1 -144 53 -178 119
-21 44 -22 54 -15 158 14 213 11 247 -28 322 -15 29 -71 91 -115 128 l-22 19
3 -99 c7 -175 -37 -261 -140 -277 -43 -7 -114 29 -131 66 -61 128 -44 417 37
651 26 72 15 66 -74 -49 -210 -269 -301 -492 -289 -710 5 -98 6 -104 37 -193
49 -140 116 -240 315 -467 128 -146 218 -272 243 -340 9 -22 14 -65 13 -96 -4
-133 -148 -296 -279 -315 -16 -3 -35 -7 -41 -8 -19 -7 -117 15 -154 34 -42 21
-98 72 -129 118 -72 105 -87 294 -35 450 8 23 14 47 14 52 0 20 -110 -60 -185
-135 -180 -180 -228 -382 -156 -655 16 -63 40 -149 51 -190 36 -128 32 -232
-11 -335 -23 -54 -86 -152 -128 -199 -44 -49 -380 -264 -517 -332 -120 -58
-151 -81 -201 -145 -7 -8 -15 -49 -18 -90 -6 -74 -6 -74 32 -129 28 -41 52
-62 93 -82 88 -43 158 -52 420 -52 178 0 344 7 430 19 14 2 52 6 85 10 33 3
71 8 85 10 201 29 210 31 238 39 9 3 33 7 52 10 305 45 805 201 1160 362 591
268 1136 674 1520 1133 25 29 50 59 55 65 6 6 45 56 86 111 371 494 618 1016
790 1670 15 61 31 128 35 150 3 22 7 43 10 46 11 19 20 201 14 299 -18 295
-253 540 -565 586 -53 8 -223 6 -237 -2 -17 -11 -7 14 20 52 46 63 90 101 161
138 111 58 208 79 416 91 96 5 114 9 154 29 92 48 71 201 -36 267 -31 20 -53
24 -123 25 -47 1 -116 -4 -155 -12z m-946 -805 c73 -32 184 -131 243 -216 13
-18 28 -35 35 -37 6 -3 65 14 130 36 106 37 128 41 218 42 87 1 106 -2 148
-23 114 -59 149 -130 143 -290 -4 -103 -17 -173 -66 -352 -169 -612 -448
-1162 -805 -1584 -27 -33 -61 -73 -75 -90 -40 -48 -279 -284 -354 -350 -290
-254 -693 -501 -1091 -668 -277 -117 -645 -230 -885 -273 -14 -2 -36 -7 -50
-9 -83 -17 -176 -33 -220 -40 -215 -29 -339 -40 -325 -27 6 5 48 35 95 68 141
97 397 291 490 370 211 180 266 231 444 410 174 173 200 201 322 344 382 449
659 895 884 1420 87 205 194 513 236 685 8 33 16 67 18 75 2 8 14 56 25 105
39 164 44 180 71 241 73 164 220 229 369 163z"/>
</g>
</svg>
